<svg width="9" height="9" viewBox="0 0 9 9" fill="none" xmlns="http://www.w3.org/2000/svg">
<g clip-path="url(#clip0_3303_1176)">
<path fill-rule="evenodd" clip-rule="evenodd" d="M1.7993 3.72175C1.90556 3.32494 2.09918 2.9569 2.366 2.64454C2.63281 2.33219 2.96607 2.08343 3.3414 1.91645C3.71673 1.74947 4.12463 1.6685 4.53528 1.67946C4.94593 1.69043 5.34894 1.79304 5.71483 1.9798C5.74711 1.99624 5.78232 2.00615 5.81844 2.00897C5.85456 2.0118 5.89088 2.00749 5.92533 1.99628C5.95978 1.98507 5.99168 1.96718 6.01922 1.94364C6.04676 1.9201 6.06939 1.89137 6.08582 1.85908C6.10225 1.82679 6.11216 1.79159 6.11499 1.75547C6.11782 1.71935 6.1135 1.68303 6.10229 1.64858C6.09108 1.61413 6.0732 1.58223 6.04966 1.55469C6.02612 1.52715 5.99738 1.50452 5.9651 1.48809C5.26883 1.13281 4.46923 1.03561 3.70812 1.21373C2.94701 1.39185 2.27358 1.83378 1.80728 2.46113C1.34097 3.08848 1.11192 3.86071 1.16076 4.64086C1.2096 5.42101 1.53316 6.15864 2.07407 6.72295C2.61497 7.28725 3.33826 7.64174 4.11564 7.72355C4.89302 7.80536 5.67425 7.6092 6.32078 7.16986C6.9673 6.73052 7.43733 6.0764 7.6475 5.32351C7.85767 4.57062 7.7944 3.76763 7.46891 3.05695C7.43842 2.99042 7.38276 2.93874 7.31417 2.91325C7.24558 2.88777 7.16967 2.89058 7.10315 2.92106C7.03663 2.95155 6.98494 3.00721 6.95946 3.0758C6.93398 3.14439 6.93679 3.2203 6.96727 3.28682C7.15156 3.68893 7.23636 4.12949 7.21451 4.57128C7.19267 5.01307 7.06481 5.44311 6.84175 5.82508C6.6187 6.20705 6.30698 6.52972 5.93295 6.76584C5.55891 7.00196 5.13355 7.14459 4.69277 7.18169C4.252 7.21879 3.80878 7.14925 3.40054 6.97897C2.9923 6.80868 2.63105 6.54265 2.34728 6.20333C2.06352 5.86402 1.86559 5.46139 1.77021 5.02947C1.67484 4.59754 1.68481 4.14901 1.7993 3.72175Z" fill="#B5B5B5"/>
<path fill-rule="evenodd" clip-rule="evenodd" d="M4.54387 0.105357C4.59555 0.0536858 4.66565 0.0246582 4.73873 0.0246582C4.81182 0.0246582 4.88191 0.0536858 4.9336 0.105357L6.31173 1.48348C6.33739 1.50909 6.35776 1.5395 6.37165 1.57299C6.38555 1.60647 6.3927 1.64237 6.3927 1.67862C6.3927 1.71488 6.38555 1.75078 6.37165 1.78426C6.35776 1.81775 6.33739 1.84816 6.31173 1.87377L4.9336 3.25189C4.90797 3.27748 4.87756 3.29777 4.84409 3.31161C4.81062 3.32545 4.77475 3.33255 4.73854 3.33253C4.70232 3.3325 4.66647 3.32534 4.63302 3.31146C4.59957 3.29758 4.56918 3.27724 4.54359 3.25162C4.49191 3.19986 4.4629 3.1297 4.46295 3.05656C4.46298 3.02034 4.47014 2.98448 4.48402 2.95103C4.4979 2.91758 4.51824 2.8872 4.54387 2.86161L5.72685 1.67862L4.54387 0.495642C4.5182 0.470039 4.49783 0.439624 4.48394 0.406138C4.47004 0.372652 4.46289 0.336754 4.46289 0.3005C4.46289 0.264246 4.47004 0.228348 4.48394 0.194862C4.49783 0.161376 4.5182 0.130961 4.54387 0.105357Z" fill="#B5B5B5"/>
</g>
<defs>
<clipPath id="clip0_3303_1176">
<rect width="8.82" height="8.82" fill="white" transform="translate(0.0527344 0.0249023)"/>
</clipPath>
</defs>
</svg>
