<svg width="12" height="12" viewBox="0 0 12 12" fill="none" xmlns="http://www.w3.org/2000/svg">
<path fill-rule="evenodd" clip-rule="evenodd" d="M7.94806 2.05679C7.98014 2.08879 8.0056 2.12681 8.02297 2.16867C8.04034 2.21052 8.04928 2.2554 8.04928 2.30071C8.04928 2.34603 8.04034 2.3909 8.02297 2.43276C8.0056 2.47462 7.98014 2.51264 7.94806 2.54464L4.05692 6.43509L7.94806 10.3255C8.01275 10.3902 8.0491 10.478 8.0491 10.5695C8.0491 10.661 8.01275 10.7487 7.94806 10.8134C7.88337 10.8781 7.79562 10.9144 7.70413 10.9144C7.61264 10.9144 7.5249 10.8781 7.4602 10.8134L3.32583 6.67902C3.29374 6.64701 3.26829 6.60899 3.25092 6.56714C3.23355 6.52528 3.22461 6.48041 3.22461 6.43509C3.22461 6.38977 3.23355 6.3449 3.25092 6.30304C3.26829 6.26118 3.29374 6.22316 3.32583 6.19116L7.4602 2.05679C7.49221 2.0247 7.53023 1.99924 7.57208 1.98188C7.61394 1.96451 7.65881 1.95557 7.70413 1.95557C7.74945 1.95557 7.79432 1.96451 7.83618 1.98188C7.87804 1.99924 7.91606 2.0247 7.94806 2.05679Z" fill="#B5B5B5"/>
</svg>
