<svg width="12" height="12" viewBox="0 0 12 12" fill="none" xmlns="http://www.w3.org/2000/svg">
<path fill-rule="evenodd" clip-rule="evenodd" d="M3.96596 2.05679C3.99797 2.0247 4.03599 1.99924 4.07785 1.98188C4.1197 1.96451 4.16458 1.95557 4.20989 1.95557C4.25521 1.95557 4.30008 1.96451 4.34194 1.98188C4.3838 1.99924 4.42182 2.0247 4.45382 2.05679L8.5882 6.19116C8.62028 6.22316 8.64574 6.26118 8.66311 6.30304C8.68047 6.3449 8.68942 6.38977 8.68942 6.43509C8.68942 6.48041 8.68047 6.52528 8.66311 6.56714C8.64574 6.60899 8.62028 6.64701 8.5882 6.67902L4.45382 10.8134C4.38913 10.8781 4.30138 10.9144 4.20989 10.9144C4.1184 10.9144 4.03066 10.8781 3.96596 10.8134C3.90127 10.7487 3.86493 10.661 3.86493 10.5695C3.86493 10.478 3.90127 10.3902 3.96596 10.3255L7.8571 6.43509L3.96596 2.54464C3.93388 2.51264 3.90842 2.47462 3.89106 2.43276C3.87369 2.3909 3.86475 2.34603 3.86475 2.30071C3.86475 2.2554 3.87369 2.21052 3.89106 2.16867C3.90842 2.12681 3.93388 2.08879 3.96596 2.05679Z" fill="#4D4D4D"/>
</svg>
