<svg width="12" height="12" viewBox="0 0 12 12" fill="none" xmlns="http://www.w3.org/2000/svg">
<g clip-path="url(#clip0_3303_1180)">
<path fill-rule="evenodd" clip-rule="evenodd" d="M3.37563 3.92262C3.40764 3.95471 3.44566 3.98016 3.48751 3.99753C3.52937 4.0149 3.57424 4.02384 3.61956 4.02384C3.66488 4.02384 3.70975 4.0149 3.75161 3.99753C3.79347 3.98016 3.83149 3.95471 3.86349 3.92262L5.68675 2.09867L7.51001 3.92262C7.54204 3.95465 7.58007 3.98006 7.62192 3.9974C7.66378 4.01474 7.70863 4.02366 7.75394 4.02366C7.79924 4.02366 7.8441 4.01474 7.88595 3.9974C7.9278 3.98006 7.96583 3.95465 7.99786 3.92262C8.0299 3.89059 8.05531 3.85256 8.07264 3.81071C8.08998 3.76885 8.0989 3.72399 8.0989 3.67869C8.0989 3.63339 8.08998 3.58853 8.07264 3.54668C8.05531 3.50483 8.0299 3.4668 7.99786 3.43476L5.93068 1.36758C5.89867 1.33549 5.86065 1.31004 5.8188 1.29267C5.77694 1.2753 5.73207 1.26636 5.68675 1.26636C5.64143 1.26636 5.59656 1.2753 5.5547 1.29267C5.51284 1.31004 5.47482 1.33549 5.44282 1.36758L3.37563 3.43476C3.34355 3.46677 3.31809 3.50479 3.30072 3.54664C3.28335 3.5885 3.27441 3.63337 3.27441 3.67869C3.27441 3.72401 3.28335 3.76888 3.30072 3.81074C3.31809 3.8526 3.34355 3.89062 3.37563 3.92262Z" fill="#B5B5B5"/>
<path fill-rule="evenodd" clip-rule="evenodd" d="M5.6873 8.8468C5.77868 8.8468 5.86631 8.8105 5.93093 8.74589C5.99554 8.68128 6.03184 8.59365 6.03184 8.50227V2.30071C6.03184 2.20933 5.99554 2.1217 5.93093 2.05709C5.86631 1.99248 5.77868 1.95618 5.6873 1.95618C5.59593 1.95618 5.5083 1.99248 5.44368 2.05709C5.37907 2.1217 5.34277 2.20933 5.34277 2.30071V8.50227C5.34277 8.59365 5.37907 8.68128 5.44368 8.74589C5.5083 8.8105 5.59593 8.8468 5.6873 8.8468Z" fill="#B5B5B5"/>
<path fill-rule="evenodd" clip-rule="evenodd" d="M1.89746 10.5694C1.89746 10.8436 2.00636 11.1065 2.20019 11.3003C2.39403 11.4941 2.65693 11.603 2.93105 11.603H8.44355C8.71768 11.603 8.98058 11.4941 9.17442 11.3003C9.36825 11.1065 9.47715 10.8436 9.47715 10.5694V5.746C9.47715 5.47187 9.36825 5.20897 9.17442 5.01513C8.98058 4.8213 8.71768 4.7124 8.44355 4.7124H7.40996C7.31859 4.7124 7.23095 4.7487 7.16634 4.81331C7.10173 4.87793 7.06543 4.96556 7.06543 5.05693C7.06543 5.14831 7.10173 5.23594 7.16634 5.30055C7.23095 5.36517 7.31859 5.40146 7.40996 5.40146H8.44355C8.53493 5.40146 8.62256 5.43776 8.68718 5.50238C8.75179 5.56699 8.78809 5.65462 8.78809 5.746V10.5694C8.78809 10.6608 8.75179 10.7484 8.68718 10.8131C8.62256 10.8777 8.53493 10.914 8.44355 10.914H2.93105C2.83968 10.914 2.75205 10.8777 2.68743 10.8131C2.62282 10.7484 2.58652 10.6608 2.58652 10.5694V5.746C2.58652 5.65462 2.62282 5.56699 2.68743 5.50238C2.75205 5.43776 2.83968 5.40146 2.93105 5.40146H3.96465C4.05602 5.40146 4.14366 5.36517 4.20827 5.30055C4.27288 5.23594 4.30918 5.14831 4.30918 5.05693C4.30918 4.96556 4.27288 4.87793 4.20827 4.81331C4.14366 4.7487 4.05602 4.7124 3.96465 4.7124H2.93105C2.65693 4.7124 2.39403 4.8213 2.20019 5.01513C2.00636 5.20897 1.89746 5.47187 1.89746 5.746V10.5694Z" fill="#B5B5B5"/>
</g>
<defs>
<clipPath id="clip0_3303_1180">
<rect width="11.025" height="11.025" fill="white" transform="translate(0.174805 0.922485)"/>
</clipPath>
</defs>
</svg>
